<?xml version="1.0" standalone="no"?>
<!DOCTYPE svg PUBLIC "-//W3C//DTD SVG 20010904//EN"
 "http://www.w3.org/TR/2001/REC-SVG-20010904/DTD/svg10.dtd">
<svg version="1.0" xmlns="http://www.w3.org/2000/svg"
 width="512.000000pt" height="512.000000pt" viewBox="0 0 512.000000 512.000000"
 preserveAspectRatio="xMidYMid meet">
<metadata>
Created by potrace 1.11, written by Peter Selinger 2001-2013
</metadata>
<g transform="translate(0.000000,512.000000) scale(0.100000,-0.100000)"
fill="#000000" stroke="none">
<path d="M525 5108 c-79 -29 -138 -85 -171 -164 -15 -36 -17 -221 -17 -2369 0
-1282 4 -2346 8 -2365 11 -52 50 -114 94 -149 83 -66 -9 -62 1487 -58 747 2
1377 7 1399 11 187 36 371 94 500 158 472 236 824 691 921 1193 4 22 9 47 10
55 19 93 26 375 12 495 -19 170 -89 401 -167 551 l-46 91 52 109 c74 153 130
331 158 499 10 65 14 375 5 440 -18 125 -23 153 -47 245 -59 232 -182 468
-341 659 -276 331 -656 538 -1102 600 -97 14 -2717 12 -2755 -1z m400 -2119
c62 -30 65 -47 65 -427 0 -372 -3 -392 -54 -425 -58 -38 -137 -21 -171 36 -18
30 -19 55 -20 382 0 385 0 390 61 431 36 23 75 24 119 3z m825 7 c104 -18 233
-109 292 -206 70 -116 81 -286 26 -410 -116 -260 -450 -346 -675 -175 -222
168 -239 486 -37 679 102 98 243 138 394 112z"/>
</g>
</svg>
