<svg xmlns="http://www.w3.org/2000/svg" viewBox="0 0 256.94 67.92">
  <title>Asset 8</title>
  <g id="Layer_2" data-name="Layer 2">
    <g id="Layer_1-2" data-name="Layer 1">
      <g>
        <g>
          <path d="M77.11,26.4A1.59,1.59,0,0,1,78.81,25H85.2A5.44,5.44,0,0,1,89,26.35a4.52,4.52,0,0,1,1.56,3.5,4,4,0,0,1-2.11,3.48,4.71,4.71,0,0,1,2.93,4.32,4.91,4.91,0,0,1-1.68,3.79A5.88,5.88,0,0,1,85.61,43H78.81a1.59,1.59,0,0,1-1.7-1.44Zm3.41,1.82v3.7H85.2A1.8,1.8,0,0,0,87,30.1a1.85,1.85,0,0,0-1.8-1.87Zm5,7h-5V39.7h5a2.26,2.26,0,1,0,0-4.51Z" style="fill: #fff"/>
          <path d="M96.67,26.4A1.59,1.59,0,0,1,98.37,25h6.22a6.27,6.27,0,0,1,4.49,1.78,5.8,5.8,0,0,1,1.85,4.37,6,6,0,0,1-3.65,5.57l2.11,4.2a1.56,1.56,0,0,1-.86,2.11,1.63,1.63,0,0,1-2.16-.58l-2.59-5.16h-3.7v4.46a1.73,1.73,0,0,1-3.41,0Zm3.41,1.82V34h4.44a2.75,2.75,0,0,0,2-.84,2.85,2.85,0,0,0,.84-2,2.76,2.76,0,0,0-.84-2,2.69,2.69,0,0,0-2-.86Z" style="fill: #fff"/>
          <path d="M130.58,41.07a1.63,1.63,0,0,1-1.06,2,1.75,1.75,0,0,1-2.16-.72l-1.15-2.62H119l-1.15,2.62a1.75,1.75,0,0,1-2.16.72,1.63,1.63,0,0,1-1.06-2l5.9-15.15a2.43,2.43,0,0,1,4.13,0Zm-5.52-4.63-2.35-6.62h-.19l-2.35,6.62Z" style="fill: #fff"/>
          <path d="M135.31,26.33a1.82,1.82,0,0,1,2-1.56,1.88,1.88,0,0,1,1.87,1L146,37h.07l0-10.78a1.73,1.73,0,0,1,3.41,0V41.59a1.82,1.82,0,0,1-2,1.56,1.86,1.86,0,0,1-1.87-1L138.76,31h-.07l0,10.75a1.73,1.73,0,0,1-3.41,0Z" style="fill: #fff"/>
          <path d="M155.23,26.4a1.59,1.59,0,0,1,1.7-1.44h4.56a9.09,9.09,0,0,1,6.58,2.57A8.53,8.53,0,0,1,170.73,34a8.58,8.58,0,0,1-2.66,6.46A9.07,9.07,0,0,1,161.49,43h-4.56a1.59,1.59,0,0,1-1.7-1.44Zm10.27,3.53a5.43,5.43,0,0,0-4-1.7h-2.86V39.7h2.86a5.4,5.4,0,0,0,4-1.68,5.71,5.71,0,0,0,0-8.09Z" style="fill: #fff"/>
          <path d="M175.92,26.35c0-.89.94-1.58,2.09-1.58a2,2,0,0,1,1.82.84L185,32.16l5.26-6.62a2.19,2.19,0,0,1,1.8-.77c1.15,0,2.06.7,2.06,1.58V41.71a1.73,1.73,0,0,1-3.41,0V30.29h-.07l-4.18,5.47a1.84,1.84,0,0,1-3,0l-4.15-5.47h-.07V41.71a1.73,1.73,0,0,1-3.41,0Z" style="fill: #fff"/>
          <path d="M199.94,26.21a1.73,1.73,0,0,1,3.41,0V41.71a1.73,1.73,0,0,1-3.41,0Z" style="fill: #fff"/>
          <path d="M209.13,26.33a1.82,1.82,0,0,1,2-1.56,1.88,1.88,0,0,1,1.87,1L219.81,37h.07l0-10.78a1.73,1.73,0,0,1,3.41,0V41.59a1.82,1.82,0,0,1-2,1.56,1.86,1.86,0,0,1-1.87-1L212.59,31h-.07l0,10.75a1.73,1.73,0,0,1-3.41,0Z" style="fill: #fff"/>
          <path d="M229.05,26.21a1.73,1.73,0,0,1,3.41,0V41.71a1.73,1.73,0,0,1-3.41,0Z" style="fill: #fff"/>
          <path d="M240.45,40.66a8.92,8.92,0,0,1-2.81-6.7,8.92,8.92,0,0,1,2.81-6.7,10,10,0,0,1,13.66,0,8.85,8.85,0,0,1,2.83,6.7,8.85,8.85,0,0,1-2.83,6.7,10,10,0,0,1-13.66,0Zm11.16-11a6.08,6.08,0,0,0-8.64,0,6.23,6.23,0,0,0,0,8.71,6.14,6.14,0,0,0,8.64,0,6.23,6.23,0,0,0,0-8.71Z" style="fill: #fff"/>
        </g>
        <g>
          <path d="M0,64.3a3.62,3.62,0,0,0,3.63,3.63H36.28a22.64,22.64,0,0,0,19.6-34,22.63,22.63,0,0,1-19.6,11.32H0Z" style="fill: #00a1df"/>
          <path d="M3.63,0A3.63,3.63,0,0,0,0,3.63v19H36.28A22.63,22.63,0,0,1,55.88,34,22.64,22.64,0,0,0,36.28,0Z" style="fill: #e70095"/>
          <path d="M36.28,22.64H0V45.28H36.28A22.63,22.63,0,0,0,55.88,34,22.63,22.63,0,0,0,36.28,22.64ZM8.66,38.26a1.64,1.64,0,0,1-3.27,0v-8.6a1.64,1.64,0,0,1,3.27,0Zm8.88,1.64A5.94,5.94,0,1,1,23.48,34,5.94,5.94,0,0,1,17.54,39.9Z" style="fill: #fff"/>
        </g>
      </g>
      <g>
        <path d="M84.25,58.67l-2.64,8.7a.58.58,0,0,1-1.1,0L77.35,57a.56.56,0,1,1,1.06-.32l2.65,8.83,2.65-8.83a.56.56,0,0,1,1.06,0l2.65,8.83,2.65-8.83a.56.56,0,1,1,1.06.32L88,67.37a.58.58,0,0,1-1.1,0Z" style="fill: #fff"/>
        <path d="M99.86,63.8H92.23a3.57,3.57,0,0,0,3.51,3.09,3.45,3.45,0,0,0,2.88-1.51.5.5,0,0,1,.44-.25.52.52,0,0,1,.44.81,4.6,4.6,0,1,1-3.75-7.23,4.65,4.65,0,0,1,4.65,4.59A.52.52,0,0,1,99.86,63.8Zm-.6-1a3.55,3.55,0,0,0-7,0Z" style="fill: #fff"/>
        <path d="M107,67.21a.55.55,0,0,1-1.11,0V56.83a.55.55,0,0,1,1.11,0v3.88h0a4.25,4.25,0,0,1,3.63-2,4.6,4.6,0,0,1,0,9.19,4.28,4.28,0,0,1-3.63-2h0Zm3.57-.32a3.59,3.59,0,1,0-3.57-3.6A3.55,3.55,0,0,0,110.62,66.89Z" style="fill: #fff"/>
        <path d="M125,63.8h-7.63a3.57,3.57,0,0,0,3.51,3.09,3.45,3.45,0,0,0,2.88-1.51.5.5,0,0,1,.44-.25.52.52,0,0,1,.44.81,4.6,4.6,0,1,1-3.75-7.23,4.65,4.65,0,0,1,4.65,4.59A.52.52,0,0,1,125,63.8Zm-.6-1a3.55,3.55,0,0,0-7,0Z" style="fill: #fff"/>
        <path d="M127,56.83a.55.55,0,0,1,1.11,0V67.21a.55.55,0,0,1-1.11,0Z" style="fill: #fff"/>
        <path d="M130.45,56.13a.77.77,0,1,1-.77.77A.77.77,0,0,1,130.45,56.13Zm-.56,3.25a.55.55,0,0,1,1.11,0v7.82a.55.55,0,0,1-1.11,0Z" style="fill: #fff"/>
        <path d="M141.26,63.8h-7.63a3.57,3.57,0,0,0,3.51,3.09A3.45,3.45,0,0,0,140,65.38a.5.5,0,0,1,.44-.25.52.52,0,0,1,.44.81,4.6,4.6,0,1,1-3.75-7.23,4.65,4.65,0,0,1,4.65,4.59A.52.52,0,0,1,141.26,63.8Zm-.6-1a3.55,3.55,0,0,0-7,0Z" style="fill: #fff"/>
        <path d="M146.86,67.43a.56.56,0,0,1-1,0l-3.64-7.81a.56.56,0,0,1,.25-.74.57.57,0,0,1,.73.29l3.17,6.92,3.17-6.92a.57.57,0,0,1,.73-.29.56.56,0,0,1,.25.74Z" style="fill: #fff"/>
        <path d="M159.67,63.8H152a3.57,3.57,0,0,0,3.51,3.09,3.45,3.45,0,0,0,2.88-1.51.5.5,0,0,1,.44-.25.52.52,0,0,1,.44.81,4.6,4.6,0,1,1-3.75-7.23,4.65,4.65,0,0,1,4.65,4.59A.52.52,0,0,1,159.67,63.8Zm-.6-1a3.55,3.55,0,0,0-7,0Z" style="fill: #fff"/>
        <path d="M166.3,56.13a.77.77,0,1,1-.77.77A.77.77,0,0,1,166.3,56.13Zm-.56,3.25a.55.55,0,0,1,1.11,0v7.82a.55.55,0,0,1-1.11,0Z" style="fill: #fff"/>
        <path d="M168.65,67.21V59.39a.55.55,0,0,1,1.11,0v1h0a3.4,3.4,0,0,1,2.89-1.72,3.2,3.2,0,0,1,3.38,3.46v5a.55.55,0,0,1-1.11,0v-5a2.28,2.28,0,0,0-2.35-2.47,2.84,2.84,0,0,0-2.83,2.59v4.92a.55.55,0,0,1-1.11,0Z" style="fill: #fff"/>
        <path d="M183,60h0a2.35,2.35,0,0,1,2.08-1.33,2.92,2.92,0,0,1,2.58,1.42,3.09,3.09,0,0,1,2.54-1.42,2.82,2.82,0,0,1,2.91,2.91v5.59a.55.55,0,0,1-1.11,0V61.61a1.87,1.87,0,0,0-1.95-1.92,2,2,0,0,0-2,2.07v5.45a.55.55,0,0,1-1.11,0V61.76a2,2,0,0,0-2-2.07,2,2,0,0,0-2,2v5.52a.55.55,0,0,1-1.11,0V59.39a.55.55,0,0,1,1.11,0Z" style="fill: #fff"/>
        <path d="M202.91,65.88h0a4.28,4.28,0,0,1-3.63,2,4.6,4.6,0,0,1,0-9.19,4.25,4.25,0,0,1,3.63,2h0V59.39a.55.55,0,0,1,1.11,0v7.82a.55.55,0,0,1-1.11,0Zm-3.57-6.18a3.59,3.59,0,0,0,0,7.18,3.59,3.59,0,0,0,0-7.18Z" style="fill: #fff"/>
        <path d="M206.93,60.23h0a2.57,2.57,0,0,1,2.22-1.53,3.22,3.22,0,0,1,.83.12.52.52,0,0,1,.4.52.49.49,0,0,1-.5.5,3.76,3.76,0,0,0-.73-.09,2.41,2.41,0,0,0-2.25,2.46v5a.55.55,0,0,1-.54.55.58.58,0,0,1-.57-.55V59.39a.56.56,0,0,1,.56-.55.55.55,0,0,1,.55.54Z" style="fill: #fff"/>
        <path d="M211.43,56.83a.55.55,0,0,1,1.11,0v5.79L216.91,59a.55.55,0,1,1,.71.84l-4.26,3.5,4.26,3.5a.55.55,0,1,1-.71.84L212.54,64v3.24a.55.55,0,0,1-1.11,0Z" style="fill: #fff"/>
        <path d="M227,63.8h-7.63a3.57,3.57,0,0,0,3.51,3.09,3.45,3.45,0,0,0,2.88-1.51.5.5,0,0,1,.44-.25.52.52,0,0,1,.44.81,4.6,4.6,0,1,1-3.75-7.23,4.65,4.65,0,0,1,4.65,4.59A.52.52,0,0,1,227,63.8Zm-.6-1a3.55,3.55,0,0,0-7,0Z" style="fill: #fff"/>
        <path d="M228.79,59h.63V57.42a.55.55,0,0,1,1.11,0V59h1.4a.51.51,0,1,1,0,1h-1.4v6a.77.77,0,0,0,.89.87.9.9,0,0,0,.48-.18.56.56,0,0,1,.34-.12.48.48,0,0,1,.5.5c0,.53-.87.79-1.3.79a1.82,1.82,0,0,1-2-1.86V60h-.63a.51.51,0,0,1,0-1Z" style="fill: #fff"/>
        <path d="M234.4,66.08a.84.84,0,1,1-.84.84A.84.84,0,0,1,234.4,66.08Z" style="fill: #fff"/>
      </g>
    </g>
  </g>
</svg>
