<svg xmlns="http://www.w3.org/2000/svg" viewBox="0 0 58.92 67.92">
  <title>brandminio_b</title>
  <g id="Layer_2" data-name="Layer 2">
    <g id="Layer_1-2" data-name="Layer 1">
      <g>
        <path d="M0,64.3a3.62,3.62,0,0,0,3.63,3.63H36.28a22.64,22.64,0,0,0,19.6-34,22.63,22.63,0,0,1-19.6,11.32H0Z" style="fill: #00a1df"/>
        <path d="M3.63,0A3.63,3.63,0,0,0,0,3.63v19H36.28A22.63,22.63,0,0,1,55.88,34,22.64,22.64,0,0,0,36.28,0Z" style="fill: #e70095"/>
        <path d="M36.28,22.64H0V45.28H36.28A22.63,22.63,0,0,0,55.88,34,22.63,22.63,0,0,0,36.28,22.64ZM8.66,38.26a1.64,1.64,0,0,1-3.27,0v-8.6a1.64,1.64,0,0,1,3.27,0Zm8.88,1.64A5.94,5.94,0,1,1,23.48,34,5.94,5.94,0,0,1,17.54,39.9Z" style="fill: #3e3935"/>
      </g>
    </g>
  </g>
</svg>
